# xmcd
# 
# Track frame offsets:
#     150
#     11542
#     26764
#     43357
#     60138
#     78614
#     96672
#     109847
#     130397
#     146498
#     161378
#     176327
#     191560
# 
# Disc length: 2789
# 
# Revision: 4
# Processed by: cddbd v1.5.2PL0 Copyright (c) Steve Scherf et al.
# Submitted via: fre:ac v1.0.31
# 
DISCID=ae0ae30d
DTITLE=Lee Ann Womack - The Way I'm Livin'
DYEAR=2014
DGENRE=Country
TTITLE0=Prelude: Fly
TTITLE1=All His Saints
TTITLE2=Chances Are
TTITLE3=The Way I'm Livin'
TTITLE4=Send It On Down
TTITLE5=Don't Listen To The Wind
TTITLE6=Same Kind Of Different
TTITLE7=Out On The Weekend
TTITLE8=Nightwind
TTITLE9=Sleeping With The Devil
TTITLE10=Not Forgotten You
TTITLE11=Tomorrow Night In Baltimore
TTITLE12=When I Come Around
EXTD=YEAR: 2014
EXTT0=
EXTT1=
EXTT2=
EXTT3=
EXTT4=
EXTT5=
EXTT6=
EXTT7=
EXTT8=
EXTT9=
EXTT10=
EXTT11=
EXTT12=
PLAYORDER=
